<svg width="60" height="60" viewBox="0 0 60 60" fill="none" xmlns="http://www.w3.org/2000/svg">
<path d="M57.9596 24.1401C56.7195 23.0102 55.1068 22.4527 53.4366 22.5102C51.7614 22.5902 50.2162 23.3152 49.0885 24.5551L39.7574 34.8093C38.9723 32.0395 36.4195 30.0022 33.3991 30.0022H8.75108C3.92548 30.0022 0 33.9269 0 38.7515V51.2506C0 56.0753 3.92548 60 8.75108 60H23.6654C30.4312 60 36.8945 57.1027 41.4001 52.0506L58.4172 32.952C60.695 30.3972 60.4899 26.4449 57.9596 24.1401ZM56.552 31.2921L39.5349 50.3882C35.5044 54.9104 29.7212 57.5027 23.6654 57.5027H8.75108C5.30565 57.5027 2.50031 54.7004 2.50031 51.2531V38.754C2.50031 35.3068 5.30565 32.5045 8.75108 32.5045H33.3966C35.6594 32.5045 37.5046 34.3469 37.5046 36.6117C37.5046 38.6416 35.9919 40.3889 34.0092 40.6714L18.6048 42.5138C17.9197 42.5938 17.4296 43.2162 17.5122 43.9037C17.5947 44.5861 18.1972 45.1011 18.9023 44.9961L34.3342 43.1512C36.8895 42.7863 38.9498 40.9539 39.6999 38.5916L50.9413 26.2425C51.6189 25.4975 52.549 25.06 53.5566 25.0125C54.5642 24.9626 55.5318 25.3125 56.2769 25.995C57.7996 27.3824 57.9221 29.7597 56.552 31.2996V31.2921ZM17.5022 16.2532V13.7534C17.5022 13.0634 18.0622 12.5035 18.7523 12.5035H21.2526C21.9427 12.5035 22.5028 13.0634 22.5028 13.7534V16.2532C22.5028 16.9431 21.9427 17.5031 21.2526 17.5031H18.7523C18.0622 17.5031 17.5022 16.9431 17.5022 16.2532ZM13.7517 25.0026H26.2532C29.6987 25.0026 32.504 22.1978 32.504 18.753V10.4711C32.504 8.38876 31.4739 6.4539 29.7487 5.29149L23.4979 1.0743C21.3726 -0.358099 18.6298 -0.358099 16.5045 1.0743L10.2538 5.29149C8.52855 6.4539 7.49842 8.39126 7.49842 10.4711V18.753C7.49842 22.1978 10.3063 25.0026 13.7517 25.0026ZM10.0012 10.4711C10.0012 9.2212 10.6188 8.06129 11.6539 7.36384L17.9047 3.14665C18.5423 2.71668 19.2724 2.50169 20.0025 2.50169C20.7326 2.50169 21.4626 2.71668 22.1002 3.14665L28.351 7.36384C29.3861 8.06129 30.0037 9.2237 30.0037 10.4711V18.753C30.0037 20.8204 28.321 22.5027 26.2532 22.5027H13.7517C11.6839 22.5027 10.0012 20.8204 10.0012 18.753V10.4711Z" fill="#1A2A40"/>
</svg>
