<svg width="60" height="60" viewBox="0 0 60 60" fill="none" xmlns="http://www.w3.org/2000/svg">
<path d="M60 24.9686V30.0731C59.2375 29.1682 58.4 28.3333 57.5 27.5659V24.9686C57.5 23.6763 56.895 22.4314 55.88 21.6365L32.605 3.4034C31.0725 2.20352 28.9325 2.20352 27.3975 3.4034L4.1225 21.6365C3.105 22.4314 2.5 23.6763 2.5 24.9686V57.5003H27.565C28.33 58.4002 29.1675 59.2376 30.0725 60H0V24.9686C0 22.9139 0.965 20.9341 2.58 19.6692L25.8525 1.4361C28.295 -0.4787 31.705 -0.4787 34.145 1.4361L57.42 19.6692C59.035 20.9341 60 22.9139 60 24.9686ZM60 43.7517C60 52.7108 52.71 60 43.75 60C34.79 60 27.5 52.7108 27.5 43.7517C27.5 34.7926 34.79 27.5034 43.75 27.5034C52.71 27.5034 60 34.7926 60 43.7517ZM57.5 43.7517C57.5 36.1725 51.3325 30.0031 43.75 30.0031C36.1675 30.0031 30 36.1725 30 43.7517C30 51.3309 36.1675 57.5003 43.75 57.5003C51.3325 57.5003 57.5 51.3309 57.5 43.7517ZM42.45 47.3788C42.3125 47.5213 42.0025 47.5163 41.8475 47.3638L37.2075 42.8643L35.4675 44.6616L40.095 49.1461C40.6475 49.6986 41.38 50.001 42.1575 50.001C42.935 50.001 43.6675 49.6986 44.2125 49.1536L52.855 40.657L51.1025 38.8747L42.4525 47.3788H42.45Z" fill="#1A2A40"/>
</svg>
