<?xml version="1.0" encoding="UTF-8"?>
<svg id="Layer_1" xmlns="http://www.w3.org/2000/svg" version="1.1" viewBox="0 0 70 55">
  <!-- Generator: Adobe Illustrator 30.0.0, SVG Export Plug-In . SVG Version: 2.1.1 Build 123)  -->
  <defs>
    <style>
      .st0 {
        fill: #1a2a40;
      }
    </style>
  </defs>
  <path class="st0" d="M8.75,52.96c-1.86,0-3.69-.73-5-2.01-1.32-1.28-2.05-2.98-2.05-4.79V3.69l15.8,15.35L35,2.04l17.5,17,15.8-15.35v42.48c0,1.81-.73,3.51-2.05,4.79-1.31,1.28-3.14,2.01-5,2.01H8.75ZM4.13,46.17c0,1.2.5,2.38,1.37,3.22.87.85,2.02,1.31,3.25,1.31h52.5c1.22,0,2.38-.47,3.25-1.31.87-.85,1.37-2.02,1.37-3.22V9.32l-13.37,12.98L35,5.31l-17.5,17L4.13,9.32v36.84Z"/>
</svg>