<svg width="60" height="60" viewBox="0 0 60 60" fill="none" xmlns="http://www.w3.org/2000/svg">
<path d="M2.50052 57.5V6.25C2.50052 4.1825 4.18337 2.5 6.2513 2.5H30.0063V20H47.5099V21.4675C48.3776 21.8175 49.2077 22.2325 50.0104 22.6975V18.2325L31.7741 0H6.2513C2.80558 0 0 2.805 0 6.25V60H40.0083C36.4976 60 33.1994 59.09 30.3313 57.5H2.50052ZM32.5068 4.2675L45.742 17.5H32.5068V4.2675ZM60 58.22L51.4557 49.6775C53.6712 47.0625 55.014 43.6875 55.014 40.0025C55.014 31.73 48.2851 25.0025 40.0108 25.0025C31.7366 25.0025 25.0077 31.73 25.0077 40.0025C25.0077 48.275 31.7366 55.0025 40.0108 55.0025C43.6991 55.0025 47.0748 53.66 49.6879 51.445L58.2321 59.9875L60 58.22ZM40.0083 52.5C33.1144 52.5 27.5057 46.8925 27.5057 40C27.5057 33.1075 33.1144 27.5 40.0083 27.5C46.9023 27.5 52.5109 33.1075 52.5109 40C52.5109 46.8925 46.9023 52.5 40.0083 52.5ZM49.1127 36.905L40.4684 45.4025C39.9033 45.9675 39.1607 46.2475 38.4155 46.2475C37.6703 46.2475 36.9202 45.965 36.3501 45.395L31.7191 40.91L33.4595 39.115L38.1004 43.6125C38.2755 43.785 38.5405 43.7875 38.7031 43.625L47.3524 35.12L49.1052 36.9025L49.1127 36.905ZM24.4051 27.5H10.0021V25H26.8081C25.9379 25.765 25.1302 26.5975 24.4051 27.5ZM20.6593 35C20.4493 35.815 20.2817 36.6475 20.1767 37.5H10.0021V35H20.6593ZM10.0021 45H20.6593C20.8793 45.855 21.1444 46.6925 21.472 47.5H10.0021V45Z" fill="#1A2A40"/>
</svg>
