<svg width="20" height="27" viewBox="0 0 20 27" fill="none" xmlns="http://www.w3.org/2000/svg">
<path d="M0.0654587 20.4559C0.0218198 20.4559 0 20.3904 0 20.2595C0 20.1286 0.0218198 20.0631 0.0654587 20.0631C0.785505 20.0631 1.30917 20.0085 1.63647 19.8995C1.98558 19.7904 2.2365 19.583 2.38924 19.2776C2.5638 18.9722 2.71654 18.4812 2.84746 17.8048L5.53126 2.65108C5.59672 2.21471 5.62945 1.86557 5.62945 1.60374C5.62945 1.12368 5.48763 0.807352 5.20397 0.654588C4.92031 0.480058 4.37483 0.392752 3.5675 0.392752C3.50204 0.392752 3.46931 0.327294 3.46931 0.196376C3.46931 0.0654586 3.50204 0 3.5675 0H16.1029C16.2774 0 16.3428 0.0981878 16.2992 0.294564L16.0047 2.16014C15.9174 2.94564 15.8083 3.67657 15.6774 4.35301C15.6555 4.44031 15.5792 4.47304 15.4483 4.4512C15.3173 4.42935 15.2628 4.38574 15.2846 4.32028C15.3065 4.14575 15.3173 3.8948 15.3173 3.5675C15.3173 2.62923 15.0991 1.88742 14.6628 1.3419C14.2264 0.774623 13.6045 0.490941 12.7972 0.490941H10.1134C9.41518 0.490941 8.89151 0.545517 8.54237 0.654588C8.21507 0.763658 7.96412 0.970999 7.78959 1.27645C7.63685 1.56013 7.50593 2.02922 7.39684 2.68381L4.74576 17.6739C4.6803 18.0666 4.64757 18.3939 4.64757 18.6557C4.64757 19.114 4.7894 19.4304 5.07305 19.6049C5.35671 19.7577 5.90219 19.834 6.70952 19.834H10.3098C11.1171 19.834 11.9135 19.4412 12.699 18.6557C13.4845 17.8702 14.0955 16.8447 14.5318 15.5792C14.5537 15.5137 14.6191 15.4919 14.7282 15.5137C14.8591 15.5356 14.9137 15.5792 14.8919 15.6446C14.5646 16.6701 14.2264 18.1102 13.8773 19.9649C13.8336 20.1394 13.7682 20.2704 13.6809 20.3577C13.6154 20.4231 13.5063 20.4559 13.3536 20.4559H0.0654587ZM12.9936 12.8626C12.9717 12.9499 12.8954 12.9936 12.7645 12.9936C12.6335 12.9717 12.579 12.9172 12.6008 12.8299C12.6663 12.459 12.699 12.1317 12.699 11.848C12.699 11.2371 12.5353 10.8007 12.2081 10.5389C11.8808 10.277 11.3462 10.1461 10.6043 10.1461H5.2367L5.33489 9.45879H10.8334C11.6844 9.45879 12.3062 9.29514 12.699 8.96785C13.1136 8.61871 13.3972 8.0187 13.55 7.16773C13.55 7.10227 13.6154 7.06954 13.7463 7.06954C13.7899 7.06954 13.8336 7.09139 13.8773 7.135C13.9427 7.15685 13.9646 7.18958 13.9427 7.23319C13.8554 7.84417 13.7572 8.36784 13.6481 8.8042L13.4518 9.81881L13.2554 11.0953C13.2554 11.1607 13.1681 11.7498 12.9936 12.8626Z" fill="black"/>
<path d="M11.2589 26.5762C10.517 26.5762 9.80793 26.4889 9.13149 26.3144C8.45506 26.1616 7.74598 25.878 7.00408 25.4634C6.82953 25.3544 6.76407 25.147 6.80771 24.8416L7.26592 20.5213C7.26592 20.4122 7.32047 20.3577 7.42957 20.3577C7.56048 20.3577 7.62594 20.4122 7.62594 20.5213C7.66958 22.0923 8.05142 23.4124 8.77147 24.4816C9.51336 25.5289 10.6152 26.0526 12.0771 26.0526C13.1463 26.0526 14.0845 25.7471 14.8919 25.1362C15.721 24.5034 16.2447 23.5324 16.4629 22.2232C16.5283 21.8523 16.5611 21.525 16.5611 21.2414C16.5611 20.1722 16.2446 19.2885 15.6119 18.5903C15.0009 17.8702 14.1064 17.1066 12.9281 16.2992C12.1207 15.7101 11.4771 15.2192 10.9971 14.8264C10.5389 14.4118 10.1461 13.9209 9.81881 13.3536C9.49152 12.7863 9.32787 12.1317 9.32787 11.3898C9.32787 11.0844 9.3606 10.768 9.42606 10.4407C9.64428 9.34972 10.0806 8.42233 10.7352 7.65867C11.4117 6.89501 12.2189 6.32765 13.1572 5.95674C14.0955 5.56399 15.0664 5.36761 16.0701 5.36761C17.2265 5.36761 18.4048 5.62945 19.6049 6.15312C19.8886 6.30588 20.0195 6.4913 19.9976 6.70952L19.5722 10.3425C19.5722 10.4298 19.5067 10.4734 19.3758 10.4734C19.2667 10.4734 19.2013 10.4298 19.1794 10.3425C19.0921 9.05515 18.7758 7.98596 18.2303 7.135C17.6847 6.28404 16.7902 5.85856 15.5465 5.85856C14.6082 5.85856 13.8227 6.09854 13.1899 6.5786C12.579 7.03681 12.1207 7.61506 11.8153 8.31326C11.5316 9.01146 11.3898 9.70974 11.3898 10.4079C11.3898 11.0844 11.5426 11.6844 11.848 12.2081C12.1753 12.7317 12.5681 13.1899 13.0263 13.5827C13.4845 13.9536 14.1282 14.4228 14.9573 14.9901C15.7864 15.5573 16.452 16.0592 16.9538 16.4956C17.4775 16.9102 17.9138 17.4229 18.263 18.0339C18.6121 18.6449 18.7867 19.3322 18.7867 20.0958C18.7867 20.4886 18.7648 20.794 18.7212 21.0123C18.4375 22.6269 17.6411 23.9579 16.332 25.0052C15.0228 26.0526 13.3317 26.5762 11.2589 26.5762Z" fill="black"/>
</svg>
