<svg width="245" height="73" viewBox="0 0 245 73" fill="none" xmlns="http://www.w3.org/2000/svg">
<path d="M93.9351 72.1775V57.307H95.0033V71.214H103.884V72.1775H93.9351ZM116.322 72.2822C115.289 72.2822 114.347 72.0728 113.495 71.6539C112.643 71.221 111.91 70.6485 111.296 69.9364C110.681 69.2243 110.207 68.4215 109.872 67.5278C109.536 66.6202 109.369 65.6917 109.369 64.7422C109.369 63.7509 109.543 62.8084 109.892 61.9147C110.242 61.0071 110.73 60.2043 111.359 59.5061C112.001 58.794 112.741 58.2355 113.579 57.8306C114.43 57.4117 115.352 57.2023 116.343 57.2023C117.391 57.2023 118.333 57.4187 119.171 57.8515C120.023 58.2844 120.756 58.8638 121.37 59.5899C121.984 60.316 122.459 61.1258 122.794 62.0195C123.129 62.9131 123.297 63.8207 123.297 64.7422C123.297 65.7476 123.122 66.704 122.773 67.6116C122.424 68.5052 121.929 69.3081 121.286 70.0202C120.658 70.7184 119.918 71.2699 119.066 71.6748C118.228 72.0797 117.314 72.2822 116.322 72.2822ZM110.437 64.7422C110.437 65.594 110.584 66.4108 110.877 67.1927C111.17 67.9746 111.575 68.6728 112.092 69.2872C112.622 69.9015 113.244 70.3902 113.956 70.7533C114.682 71.1163 115.478 71.2978 116.343 71.2978C117.223 71.2978 118.026 71.1093 118.752 70.7323C119.478 70.3553 120.099 69.8527 120.616 69.2243C121.133 68.596 121.524 67.8978 121.789 67.1299C122.068 66.348 122.208 65.5521 122.208 64.7422C122.208 63.8905 122.061 63.0737 121.768 62.2917C121.489 61.5098 121.084 60.8117 120.553 60.1973C120.023 59.5829 119.394 59.0942 118.668 58.7312C117.956 58.3682 117.181 58.1866 116.343 58.1866C115.45 58.1866 114.64 58.3751 113.914 58.7521C113.188 59.1291 112.566 59.6318 112.05 60.2601C111.547 60.8885 111.149 61.5936 110.856 62.3755C110.577 63.1435 110.437 63.9324 110.437 64.7422ZM132.26 59.2967V72.1775H131.192V57.307H132.071L142.439 70.3972V57.307H143.507V72.1775H142.46L132.26 59.2967ZM152.417 72.1775V57.307H157.36C158.938 57.307 160.243 57.6421 161.277 58.3123C162.324 58.9686 163.106 59.8622 163.622 60.9932C164.153 62.1102 164.418 63.3529 164.418 64.7213C164.418 66.2293 164.132 67.5418 163.56 68.6588C162.987 69.7759 162.17 70.6416 161.109 71.2559C160.048 71.8703 158.798 72.1775 157.36 72.1775H152.417ZM163.35 64.7213C163.35 63.4786 163.113 62.3685 162.638 61.3911C162.177 60.4137 161.5 59.6527 160.606 59.1082C159.727 58.5497 158.645 58.2704 157.36 58.2704H153.485V71.214H157.36C158.659 71.214 159.755 70.9278 160.648 70.3553C161.542 69.7828 162.212 69.0079 162.659 68.0305C163.12 67.0391 163.35 65.9361 163.35 64.7213ZM178.302 72.2822C177.269 72.2822 176.326 72.0728 175.475 71.6539C174.623 71.221 173.89 70.6485 173.276 69.9364C172.661 69.2243 172.186 68.4215 171.851 67.5278C171.516 66.6202 171.349 65.6917 171.349 64.7422C171.349 63.7509 171.523 62.8084 171.872 61.9147C172.221 61.0071 172.71 60.2043 173.338 59.5061C173.981 58.794 174.721 58.2355 175.559 57.8306C176.41 57.4117 177.332 57.2023 178.323 57.2023C179.37 57.2023 180.313 57.4187 181.151 57.8515C182.002 58.2844 182.735 58.8638 183.35 59.5899C183.964 60.316 184.439 61.1258 184.774 62.0195C185.109 62.9131 185.277 63.8207 185.277 64.7422C185.277 65.7476 185.102 66.704 184.753 67.6116C184.404 68.5052 183.908 69.3081 183.266 70.0202C182.638 70.7184 181.898 71.2699 181.046 71.6748C180.208 72.0797 179.294 72.2822 178.302 72.2822ZM172.417 64.7422C172.417 65.594 172.563 66.4108 172.857 67.1927C173.15 67.9746 173.555 68.6728 174.071 69.2872C174.602 69.9015 175.223 70.3902 175.936 70.7533C176.662 71.1163 177.457 71.2978 178.323 71.2978C179.203 71.2978 180.006 71.1093 180.732 70.7323C181.458 70.3553 182.079 69.8527 182.596 69.2243C183.112 68.596 183.503 67.8978 183.769 67.1299C184.048 66.348 184.188 65.5521 184.188 64.7422C184.188 63.8905 184.041 63.0737 183.748 62.2917C183.469 61.5098 183.064 60.8117 182.533 60.1973C182.002 59.5829 181.374 59.0942 180.648 58.7312C179.936 58.3682 179.161 58.1866 178.323 58.1866C177.43 58.1866 176.62 58.3751 175.894 58.7521C175.168 59.1291 174.546 59.6318 174.03 60.2601C173.527 60.8885 173.129 61.5936 172.836 62.3755C172.556 63.1435 172.417 63.9324 172.417 64.7422ZM194.239 59.2967V72.1775H193.171V57.307H194.051L204.418 70.3972V57.307H205.486V72.1775H204.439L194.239 59.2967Z" fill="white"/>
<path d="M65.6436 40.4925C65.5691 40.4925 65.5319 40.3807 65.5319 40.1573C65.5319 39.9339 65.5691 39.8222 65.6436 39.8222C66.8724 39.8222 67.766 39.7291 68.3245 39.543C68.9203 39.3568 69.3484 39.003 69.6091 38.4818C69.907 37.9606 70.1676 37.1228 70.391 35.9685L74.9708 10.1092C75.0825 9.36452 75.1384 8.76872 75.1384 8.3219C75.1384 7.5027 74.8964 6.96289 74.4123 6.70221C73.9283 6.40438 72.9974 6.25539 71.6197 6.25539C71.508 6.25539 71.4522 6.14369 71.4522 5.92028C71.4522 5.69688 71.508 5.58517 71.6197 5.58517H93.0109C93.3088 5.58517 93.4205 5.75273 93.346 6.08784L92.8434 9.27138C92.6944 10.6118 92.5083 11.8591 92.2849 13.0134C92.2476 13.1624 92.1173 13.2183 91.8939 13.181C91.6705 13.1437 91.5774 13.0693 91.6146 12.9576C91.6519 12.6598 91.6705 12.2315 91.6705 11.673C91.6705 10.0719 91.2981 8.806 90.5535 7.87509C89.8088 6.90704 88.7476 6.42295 87.3699 6.42295H82.7901C81.5986 6.42295 80.705 6.51608 80.1092 6.70221C79.5507 6.88833 79.1224 7.24215 78.8246 7.76339C78.564 8.24748 78.3406 9.04798 78.1544 10.165L73.6304 35.7451C73.5187 36.4153 73.4628 36.9738 73.4628 37.4206C73.4628 38.2025 73.7049 38.7425 74.1889 39.0403C74.673 39.301 75.6038 39.4313 76.9815 39.4313H83.1252C84.5029 39.4313 85.8619 38.7611 87.2024 37.4206C88.5428 36.0802 89.5854 34.3302 90.33 32.1706C90.3673 32.0589 90.479 32.0216 90.6652 32.0589C90.8886 32.0961 90.9817 32.1706 90.9444 32.2823C90.3859 34.0322 89.8088 36.4897 89.213 39.6547C89.1386 39.9525 89.0269 40.1759 88.8779 40.3249C88.7662 40.4366 88.5801 40.4925 88.3194 40.4925H65.6436ZM87.705 27.5349C87.6677 27.6839 87.5375 27.7583 87.3141 27.7583C87.0906 27.721 86.9975 27.628 87.0348 27.479C87.1465 26.8461 87.2024 26.2876 87.2024 25.8035C87.2024 24.7609 86.9231 24.0162 86.3646 23.5694C85.8061 23.1226 84.8939 22.8992 83.6278 22.8992H74.4682L74.6357 21.7263H84.0188C85.471 21.7263 86.5321 21.447 87.2024 20.8885C87.9099 20.2927 88.3938 19.2688 88.6545 17.8167C88.6545 17.705 88.7662 17.6491 88.9896 17.6491C89.064 17.6491 89.1386 17.6864 89.213 17.7608C89.3247 17.7981 89.362 17.854 89.3247 17.9284C89.1757 18.971 89.0082 19.8646 88.8221 20.6093L88.4869 22.3407L88.1518 24.5189C88.1518 24.6306 88.0028 25.6359 87.705 27.5349ZM98.5219 40.9951C97.8144 40.9951 97.2932 40.809 96.9581 40.4366C96.6601 40.0271 96.5113 39.3568 96.5113 38.4259C96.5113 37.644 96.623 36.676 96.8464 35.5217L102.376 5.92028C102.45 5.62245 102.487 5.21278 102.487 4.69155C102.487 3.76064 102.115 3.29526 101.37 3.29526C100.775 3.29526 99.881 3.57451 98.6895 4.13303H98.5778C98.4288 4.13303 98.3171 4.0399 98.2427 3.85377C98.2054 3.66765 98.2613 3.55594 98.4102 3.51866L105.615 9.53674e-06H105.727C105.876 9.53674e-06 106.006 0.055861 106.118 0.167564C106.229 0.279268 106.267 0.372358 106.229 0.446822L99.7507 35.5217C99.639 36.0802 99.5831 36.5828 99.5831 37.0297C99.5831 37.5882 99.6761 38.0164 99.8624 38.3142C100.049 38.6121 100.309 38.761 100.644 38.761C101.463 38.761 102.692 37.9047 104.331 36.1919C104.405 36.1175 104.479 36.0802 104.554 36.0802C104.666 36.0802 104.759 36.1546 104.833 36.3036C104.908 36.4153 104.889 36.527 104.777 36.6387C103.511 38.1281 102.376 39.2264 101.37 39.9339C100.402 40.6414 99.4527 40.9951 98.5219 40.9951ZM112.781 40.9951C112.111 40.9951 111.608 40.809 111.273 40.4366C110.938 40.0271 110.77 39.3754 110.77 38.4818C110.77 37.9233 110.901 36.9365 111.161 35.5217L113.451 23.9045C113.563 23.346 113.619 22.8433 113.619 22.3965C113.619 21.838 113.507 21.4098 113.284 21.1119C113.098 20.7768 112.837 20.6093 112.502 20.6093C112.055 20.6093 111.478 20.8327 110.77 21.2795C110.1 21.7263 109.393 22.3592 108.648 23.1784C108.611 23.2157 108.555 23.2343 108.481 23.2343C108.369 23.2343 108.257 23.1784 108.145 23.0667C108.071 22.9178 108.09 22.8061 108.201 22.7316C109.504 21.2422 110.677 20.1625 111.72 19.4922C112.762 18.7847 113.749 18.4311 114.68 18.4311C115.35 18.4311 115.834 18.6172 116.132 18.9896C116.467 19.362 116.635 19.9763 116.635 20.8327C116.635 21.3539 116.504 22.3407 116.244 23.7928L114.01 35.5217C113.898 36.1175 113.842 36.6201 113.842 37.0297C113.842 38.184 114.196 38.761 114.904 38.761C115.797 38.761 117.063 37.9418 118.701 36.3036C118.776 36.2292 118.85 36.1919 118.925 36.1919C119.037 36.1919 119.13 36.2663 119.204 36.4153C119.279 36.527 119.26 36.6387 119.148 36.7504C117.882 38.2025 116.747 39.2823 115.741 39.9898C114.736 40.66 113.749 40.9951 112.781 40.9951ZM116.3 11.8406C115.555 11.8406 114.959 11.6357 114.513 11.2262C114.103 10.7794 113.898 10.1836 113.898 9.43894C113.898 8.73144 114.103 8.17292 114.513 7.76339C114.959 7.35386 115.555 7.14902 116.3 7.14902C117.044 7.14902 117.622 7.35386 118.031 7.76339C118.441 8.17292 118.646 8.73144 118.646 9.43894C118.646 10.1836 118.441 10.7794 118.031 11.2262C117.622 11.6357 117.044 11.8406 116.3 11.8406ZM127.251 41.1627C126.171 41.1627 125.277 40.8834 124.57 40.3249C123.862 39.7664 123.509 38.8728 123.509 37.644C123.509 37.4206 123.546 37.0111 123.62 36.4153L126.022 23.4018C126.171 22.6943 126.245 22.0987 126.245 21.6146C126.245 21.0934 126.096 20.7583 125.798 20.6093C125.501 20.4231 124.942 20.33 124.123 20.33C124.011 20.33 123.955 20.2369 123.955 20.0508C123.955 19.9763 123.974 19.9018 124.011 19.8273C124.086 19.7156 124.142 19.6598 124.179 19.6598C125.445 19.6598 126.543 19.2503 127.474 18.4311C128.405 17.6118 129.038 16.5879 129.373 15.3592C129.447 15.2475 129.615 15.1917 129.876 15.1917C130.248 15.1917 130.397 15.2475 130.322 15.3592L126.86 34.6839C126.748 35.2797 126.692 35.8382 126.692 36.3594C126.692 38.184 127.604 39.0962 129.429 39.0962C130.397 39.0962 131.291 38.8728 132.11 38.4259C132.966 37.9791 133.86 37.3648 134.791 36.5828H134.846C134.958 36.5828 135.07 36.6387 135.182 36.7504C135.33 36.8621 135.349 36.9552 135.237 37.0297C133.562 38.4818 132.091 39.543 130.825 40.2132C129.596 40.8461 128.405 41.1627 127.251 41.1627ZM135.293 21.3912C135.107 21.3912 134.269 21.2981 132.78 21.1119C131.328 20.9258 129.932 20.8327 128.591 20.8327L128.703 19.4922C129.894 19.4922 131.923 19.3991 134.791 19.213L136.69 19.1013C136.95 19.1013 137.081 19.2315 137.081 19.4922C137.081 19.7901 136.876 20.181 136.466 20.6651C136.056 21.1492 135.666 21.3912 135.293 21.3912ZM145.621 41.1627C143.276 41.1627 141.488 40.418 140.26 38.9286C139.068 37.402 138.472 35.4472 138.472 33.0642C138.472 32.245 138.565 31.2769 138.752 30.1599C139.087 28.2609 139.869 26.3993 141.098 24.5747C142.326 22.7131 143.853 21.1864 145.677 19.9949C147.539 18.8034 149.475 18.2076 151.486 18.2076C152.826 18.2076 153.832 18.4869 154.502 19.0454C155.209 19.5667 155.47 20.2927 155.284 21.2236C155.06 22.3779 154.241 23.495 152.826 24.5747C151.449 25.6173 149.68 26.511 147.52 27.2556C145.398 27.9631 143.145 28.4471 140.762 28.7078L140.874 27.9817C143.853 27.5722 146.292 26.9019 148.191 25.971C150.09 25.0401 151.207 23.8487 151.542 22.3965C151.616 22.0241 151.653 21.7636 151.653 21.6146C151.653 20.9817 151.393 20.5161 150.872 20.2183C150.35 19.8832 149.736 19.7156 149.028 19.7156C147.241 19.7156 145.752 20.5161 144.56 22.1173C143.369 23.7184 142.568 25.7849 142.159 28.3168C141.935 29.4711 141.824 30.5694 141.824 31.612C141.824 33.9205 142.326 35.7823 143.332 37.1972C144.374 38.5749 145.845 39.2637 147.744 39.2637C149.866 39.2637 151.746 38.6493 153.385 37.4206H153.497C153.608 37.4206 153.701 37.4765 153.776 37.5882C153.888 37.6999 153.888 37.8116 153.776 37.9233C151.169 40.0829 148.451 41.1627 145.621 41.1627ZM166.33 41.1627C165.064 41.1627 163.854 41.0137 162.699 40.7159C161.545 40.4552 160.335 39.9712 159.069 39.2637C158.771 39.0776 158.66 38.7238 158.734 38.2025L159.516 30.8301C159.516 30.644 159.609 30.5509 159.795 30.5509C160.019 30.5509 160.13 30.644 160.13 30.8301C160.205 33.511 160.856 35.7636 162.085 37.5882C163.351 39.3754 165.231 40.269 167.726 40.269C169.551 40.269 171.152 39.7478 172.529 38.7052C173.944 37.6254 174.838 35.9685 175.21 33.7344C175.322 33.1015 175.378 32.5429 175.378 32.0589C175.378 30.2343 174.838 28.7263 173.758 27.5349C172.715 26.3061 171.189 25.003 169.178 23.6253C167.8 22.6199 166.702 21.7822 165.883 21.1119C165.101 20.4044 164.431 19.5667 163.872 18.5986C163.314 17.6306 163.035 16.5135 163.035 15.2475C163.035 14.7263 163.09 14.1863 163.202 13.6278C163.574 11.7661 164.319 10.1836 165.436 8.88042C166.59 7.57726 167.968 6.60907 169.569 5.97614C171.17 5.30592 172.827 4.97081 174.54 4.97081C176.513 4.97081 178.524 5.41762 180.572 6.31125C181.056 6.57193 181.279 6.88833 181.242 7.26072L180.516 13.4603C180.516 13.6092 180.404 13.6837 180.181 13.6837C179.995 13.6837 179.883 13.6092 179.846 13.4603C179.697 11.2635 179.157 9.43894 178.226 7.9868C177.295 6.53465 175.769 5.80858 173.646 5.80858C172.045 5.80858 170.705 6.21811 169.625 7.03732C168.582 7.81924 167.8 8.806 167.279 9.99745C166.795 11.1889 166.553 12.3805 166.553 13.572C166.553 14.7263 166.814 15.7502 167.335 16.6438C167.894 17.5374 168.564 18.3193 169.346 18.9896C170.128 19.6225 171.226 20.4231 172.641 21.3912C174.056 22.3592 175.192 23.2157 176.048 23.9604C176.942 24.6679 177.686 25.5428 178.282 26.5854C178.878 27.628 179.176 28.8009 179.176 30.104C179.176 30.7743 179.138 31.2955 179.064 31.6679C178.58 34.4232 177.221 36.6945 174.987 38.4818C172.753 40.269 169.867 41.1627 166.33 41.1627ZM188.666 41.1627C187.586 41.1627 186.692 40.902 185.985 40.3807C185.277 39.8222 184.924 38.9286 184.924 37.6999C184.924 37.1414 184.961 36.7131 185.035 36.4153L187.437 23.4018C187.586 22.3592 187.66 21.7636 187.66 21.6146C187.66 21.0934 187.511 20.7583 187.214 20.6093C186.916 20.4231 186.357 20.33 185.538 20.33C185.426 20.33 185.37 20.2369 185.37 20.0508C185.37 19.9763 185.389 19.9018 185.426 19.8273C185.501 19.7156 185.557 19.6598 185.594 19.6598C186.86 19.6598 187.958 19.2503 188.889 18.4311C189.82 17.6118 190.453 16.5879 190.788 15.3592C190.862 15.2475 191.03 15.1917 191.291 15.1917C191.663 15.1917 191.812 15.2475 191.738 15.3592L188.275 34.6839C188.163 35.2797 188.107 35.8382 188.107 36.3594C188.107 38.184 189.019 39.0962 190.844 39.0962C191.738 39.0962 192.538 38.9286 193.245 38.5935C193.953 38.2211 194.791 37.6813 195.759 36.9738H195.815C195.926 36.9738 196.038 37.0296 196.15 37.1414C196.299 37.2531 196.336 37.3462 196.261 37.4206C194.66 38.7611 193.264 39.7291 192.073 40.3249C190.881 40.8834 189.745 41.1627 188.666 41.1627ZM198.998 21.5029C195.871 21.0561 192.873 20.8327 190.006 20.8327L190.118 19.5481C191.682 19.5481 193.469 19.4922 195.48 19.3805C197.49 19.2315 198.719 19.1386 199.166 19.1013L200.73 18.9896C200.99 18.9896 201.121 19.1198 201.121 19.3805C201.121 19.7156 200.86 20.1625 200.339 20.721C199.855 21.2795 199.408 21.5402 198.998 21.5029ZM202.631 41.2185C200.322 41.2185 199.168 39.8408 199.168 37.0855C199.168 36.7877 199.205 36.2292 199.28 35.41C199.652 32.7664 200.639 30.104 202.24 27.4232C203.841 24.7423 205.721 22.5455 207.881 20.8327C210.04 19.0827 212.07 18.2076 213.969 18.2076C215.122 18.2076 216.147 18.5428 217.041 19.213C217.934 19.8459 218.437 20.7954 218.549 22.0614L216.147 20.5534C216.668 20.479 217.226 20.1625 217.823 19.6039C218.417 19.0454 218.808 18.4311 218.995 17.7608C219.032 17.6491 219.163 17.6118 219.386 17.6491C219.61 17.6864 219.702 17.7423 219.666 17.8167L216.426 35.5217C216.315 36.1175 216.259 36.6387 216.259 37.0855C216.259 38.2025 216.594 38.761 217.264 38.761C218.082 38.761 219.311 37.9047 220.95 36.1919C220.987 36.1546 221.042 36.136 221.118 36.136C221.23 36.136 221.322 36.2104 221.397 36.3594C221.471 36.4711 221.471 36.5643 221.397 36.6387C220.131 38.0908 218.995 39.1893 217.99 39.9339C217.021 40.6414 216.072 40.9951 215.142 40.9951C214.508 40.9951 214.025 40.809 213.69 40.4366C213.391 40.0271 213.243 39.3754 213.243 38.4818C213.243 37.7372 213.354 36.7504 213.578 35.5217L214.918 27.7024L215.868 26.7529C214.192 31.035 212.126 34.5163 209.668 37.1972C207.211 39.8781 204.865 41.2185 202.631 41.2185ZM204.642 38.4818C205.982 38.4818 207.396 37.793 208.886 36.4153C210.412 35.0376 211.771 33.3062 212.964 31.2211C214.155 29.0987 214.955 27.0322 215.365 25.0215C215.477 24.5747 215.533 24.1279 215.533 23.6811C215.533 22.6014 215.234 21.7449 214.639 21.1119C214.043 20.479 213.187 20.1625 212.07 20.1625C210.766 20.1997 209.425 20.7954 208.049 21.9497C206.708 23.0667 205.516 24.5933 204.474 26.5295C203.468 28.4658 202.78 30.5881 202.407 32.8966C202.296 33.7158 202.24 34.4605 202.24 35.1307C202.24 36.2477 202.426 37.0855 202.798 37.644C203.208 38.2025 203.822 38.4818 204.642 38.4818ZM221.319 56.1868C220.649 56.1868 220.108 56.0378 219.699 55.7399C219.252 55.4421 219.029 54.958 219.029 54.2878C219.029 53.6549 219.233 53.1708 219.643 52.8357C220.052 52.5378 220.611 52.3889 221.319 52.3889C222.883 52.3889 224.167 52.3144 225.173 52.1654C226.178 52.0165 227.108 51.6255 227.965 50.9926C229.23 50.0989 230.888 48.2 232.936 45.2957C235.021 42.3914 236.938 39.3381 238.689 36.136C240.438 32.8966 241.518 30.4206 241.928 28.7078C242.114 28.0003 242.207 27.2183 242.207 26.362C242.207 25.096 241.909 23.6067 241.314 21.8939C241.015 21.1864 240.867 20.6278 240.867 20.2183C240.867 19.6971 241.053 19.2688 241.426 18.9337C241.797 18.5613 242.281 18.3752 242.878 18.3752C244.292 18.3752 245 19.3991 245 21.447C245 24.5003 243.548 28.8567 240.644 34.5163C237.776 40.1388 234.462 45.1467 230.702 49.5404C226.94 53.9713 223.813 56.1868 221.319 56.1868ZM232.489 46.8037C232.526 45.9473 232.545 44.7186 232.545 43.1175C232.545 36.0802 231.967 30.6253 230.814 26.7529C229.697 22.8433 228.151 20.8885 226.178 20.8885C225.023 20.8885 224.092 21.5773 223.385 22.955C223.348 23.0667 223.236 23.1226 223.05 23.1226C222.789 23.1226 222.678 23.0109 222.715 22.7875C224.13 19.8832 225.861 18.4311 227.909 18.4311C229.473 18.4311 230.814 19.3247 231.931 21.1119C233.048 22.8619 233.904 25.2822 234.5 28.3726C235.095 31.4259 235.394 34.8514 235.394 38.6493C235.394 39.4686 235.356 40.7344 235.282 42.4473L232.489 46.8037Z" fill="white"/>
<path d="M0.165182 56.8323C0.0550608 56.8323 0 56.6671 0 56.3367C0 56.0063 0.0550608 55.8412 0.165182 55.8412C1.98219 55.8412 3.30364 55.7034 4.12956 55.4282C5.01054 55.153 5.64372 54.6298 6.02915 53.859C6.46963 53.0882 6.85507 51.8493 7.18543 50.1424L13.9579 11.9027C14.1231 10.8015 14.2057 9.92047 14.2057 9.25974C14.2057 8.0484 13.8478 7.25002 13.132 6.8646C12.4162 6.42411 11.0397 6.20387 9.00244 6.20387C8.83725 6.20387 8.75466 6.03869 8.75466 5.70832C8.75466 5.37796 8.83725 5.21278 9.00244 5.21278H40.6348C41.0754 5.21278 41.2406 5.46055 41.1303 5.95609L40.387 10.6638C40.1669 12.646 39.8915 14.4905 39.5611 16.1974C39.5062 16.4177 39.3133 16.5002 38.983 16.4452C38.6526 16.3901 38.5151 16.28 38.57 16.1148C38.6251 15.6743 38.6526 15.0411 38.6526 14.2152C38.6526 11.8476 38.1021 9.97554 37.0008 8.59901C35.8996 7.16743 34.3304 6.45164 32.2931 6.45164H25.5206C23.7587 6.45164 22.4373 6.58929 21.5562 6.8646C20.7303 7.1399 20.0972 7.66299 19.6567 8.43383C19.2713 9.14963 18.9409 10.3334 18.6656 11.9853L11.9757 49.812C11.8105 50.8031 11.7279 51.629 11.7279 52.2897C11.7279 53.446 12.0859 54.2445 12.8016 54.6849C13.5174 55.0704 14.894 55.263 16.9312 55.263H26.0161C28.0535 55.263 30.0631 54.2719 32.0453 52.2897C34.0275 50.3076 35.5693 47.7198 36.6704 44.5262C36.7255 44.361 36.8907 44.3059 37.1659 44.361C37.4963 44.4161 37.634 44.5262 37.5789 44.6914C36.753 47.2791 35.8996 50.9132 35.0186 55.5934C34.9085 56.0338 34.7433 56.3642 34.523 56.5845C34.3578 56.7497 34.0826 56.8323 33.6971 56.8323H0.165182ZM32.7886 37.6711C32.7337 37.8914 32.5408 38.0015 32.2105 38.0015C31.8801 37.9463 31.7426 37.8088 31.7975 37.5885C31.9627 36.6526 32.0453 35.8266 32.0453 35.1108C32.0453 33.569 31.6323 32.4679 30.8064 31.8071C29.9805 31.1464 28.6316 30.816 26.7595 30.816H13.2146L13.4624 29.0816H27.3376C29.485 29.0816 31.0542 28.6687 32.0453 27.8428C33.0915 26.9617 33.8074 25.4476 34.1927 23.3002C34.1927 23.1351 34.3578 23.0525 34.6882 23.0525C34.7985 23.0525 34.9085 23.1075 35.0186 23.2177C35.1838 23.2727 35.2389 23.3553 35.1838 23.4654C34.9637 25.0071 34.7159 26.3287 34.4404 27.4298L33.9449 29.9901L33.4493 33.2112C33.4493 33.3764 33.2292 34.863 32.7886 37.6711Z" fill="white"/>
<path d="M26.3465 72.2771C24.4746 72.2771 22.685 72.0568 20.9781 71.6164C19.2713 71.2309 17.4818 70.5153 15.6097 69.469C15.1693 69.1938 15.0041 68.6706 15.1142 67.8998L16.2705 56.9978C16.2705 56.7225 16.4081 56.5848 16.6834 56.5848C17.0138 56.5848 17.179 56.7225 17.179 56.9978C17.2891 60.9621 18.2526 64.2932 20.0697 66.9913C21.9417 69.6342 24.7223 70.9557 28.4113 70.9557C31.1093 70.9557 33.477 70.1849 35.5141 68.6431C37.6066 67.0464 38.928 64.5961 39.4785 61.2925C39.6437 60.3565 39.7263 59.5306 39.7263 58.8148C39.7263 56.1167 38.928 53.8868 37.3311 52.1249C35.7896 50.3079 33.5319 48.3808 30.5587 46.3435C28.5215 44.8569 26.8972 43.618 25.6858 42.6269C24.5295 41.5807 23.5384 40.3418 22.7125 38.9103C21.8866 37.4788 21.4736 35.827 21.4736 33.9548C21.4736 33.184 21.5562 32.3856 21.7214 31.5597C22.2721 28.8067 23.3732 26.4665 25.025 24.5394C26.732 22.6123 28.7693 21.1807 31.1368 20.2447C33.5045 19.2536 35.9547 18.758 38.4874 18.758C41.4058 18.758 44.379 19.4188 47.4073 20.7402C48.1231 21.1257 48.4535 21.5937 48.3983 22.1443L47.3247 31.3119C47.3247 31.5322 47.1595 31.6423 46.8291 31.6423C46.5539 31.6423 46.3887 31.5322 46.3336 31.3119C46.1135 28.0634 45.315 25.3653 43.9384 23.218C42.562 21.0706 40.3044 19.9969 37.1659 19.9969C34.7985 19.9969 32.8163 20.6026 31.2194 21.8139C29.6778 22.9702 28.5215 24.4293 27.7506 26.1912C27.0349 27.9531 26.6769 29.7152 26.6769 31.4771C26.6769 33.184 27.0624 34.6981 27.8331 36.0196C28.6591 37.3411 29.6501 38.4973 30.8064 39.4884C31.9627 40.4244 33.5871 41.6083 35.6793 43.0398C37.7718 44.4714 39.451 45.7379 40.7174 46.839C42.0388 47.8853 43.1402 49.1791 44.021 50.7208C44.9021 52.2626 45.3425 53.997 45.3425 55.9241C45.3425 56.9152 45.2875 57.686 45.1773 58.2366C44.4616 62.3111 42.4518 65.6698 39.1481 68.3127C35.8445 70.9557 31.5774 72.2771 26.3465 72.2771Z" fill="white"/>
</svg>
