<?xml version="1.0" encoding="UTF-8"?>
<!DOCTYPE svg PUBLIC "-//W3C//DTD SVG 1.1//EN" "http://www.w3.org/Graphics/SVG/1.1/DTD/svg11.dtd">
<!-- Creator: CorelDRAW -->
<svg xmlns="http://www.w3.org/2000/svg" xml:space="preserve" width="7.11111in" height="7.11111in" version="1.1" style="shape-rendering:geometricPrecision; text-rendering:geometricPrecision; image-rendering:optimizeQuality; fill-rule:evenodd; clip-rule:evenodd"
viewBox="0 0 7111 7111"
 xmlns:xlink="http://www.w3.org/1999/xlink">
 <defs>
  <style type="text/css">
   <![CDATA[
    .str0 {stroke:black;stroke-width:250;stroke-linecap:round;stroke-linejoin:round}
    .fil0 {fill:none}
    .fil1 {fill:none;fill-rule:nonzero}
   ]]>
  </style>
 </defs>
 <g id="Layer_x0020_1">
  <metadata id="CorelCorpID_0Corel-Layer"/>
  <line class="fil0 str0" x1="213" y1="6986" x2="6898" y2= "6986" />
  <rect class="fil0 str0" x="699" y="5689" width="910" height="1297"/>
  <rect class="fil0 str0" x="2300" y="4948" width="910" height="2038"/>
  <rect class="fil0 str0" x="3901" y="6141" width="910" height="845"/>
  <rect class="fil0 str0" x="5502" y="3755" width="910" height="3231"/>
  <polyline class="fil0 str0" points="1154,4864 2755,4123 3878,4657 4355,5616 4923,3461 5957,2930 "/>
  <path class="fil0 str0" d="M3849 817l-586 0 0 586 586 0m-293 769l0 -183m-293 0l586 0 0 -586m-293 -768l0 182"/>
  <circle class="fil0 str0" cx="3556" cy="1403" r="1278"/>
  <path class="fil1 str0" d="M213 1644l801 0 0 367 802 -734 -802 -734 0 367 -801 0 0 734zm401 0m400 184m401 -184m0 -734m-401 -184m-400 184m-401 367"/>
  <path class="fil1 str0" d="M6898 1644l-801 0 0 367 -802 -734 802 -734 0 367 801 0 0 734zm-401 0m-400 184m-401 -184m0 -734m401 -184m400 184m401 367"/>
 </g>
</svg>
