<?xml version="1.0" encoding="UTF-8"?>
<svg id="Layer_1" xmlns="http://www.w3.org/2000/svg" version="1.1" viewBox="0 0 512 512">
  <!-- Generator: Adobe Illustrator 30.0.0, SVG Export Plug-In . SVG Version: 2.1.1 Build 123)  -->
  <defs>
    <style>
      .st0 {
        fill: none;
        stroke: #000;
        stroke-linecap: round;
        stroke-linejoin: round;
        stroke-width: 15px;
      }
    </style>
  </defs>
  <g id="Layer_x5F_1">
    <line class="st0" x1="15.34" y1="503" x2="496.66" y2="503"/>
    <rect class="st0" x="50.33" y="409.61" width="65.52" height="93.39"/>
    <rect class="st0" x="165.6" y="356.26" width="65.52" height="146.74"/>
    <rect class="st0" x="280.88" y="442.16" width="65.52" height="60.84"/>
    <rect class="st0" x="396.15" y="270.36" width="65.52" height="232.64"/>
    <polyline class="st0" points="83.09 350.21 198.36 296.86 279.22 335.31 313.56 404.36 354.46 249.2 428.91 210.96"/>
    <path class="st0" d="M277.13,58.82h-42.19v42.19h42.19M256.04,156.39v-13.18M234.94,143.21h42.19v-42.19M256.04,45.72v13.1"/>
    <circle class="st0" cx="256.04" cy="101.02" r="92.02"/>
    <path class="st0" d="M15.34,118.37h57.67v26.42l57.74-52.85-57.74-52.85v26.42H15.34v52.85h0Z"/>
    <path class="st0" d="M496.66,118.37h-57.67v26.42l-57.74-52.85,57.74-52.85v26.42h57.67v52.85h0Z"/>
  </g>
</svg>