<?xml version="1.0" encoding="UTF-8"?>
<svg id="Logo" xmlns="http://www.w3.org/2000/svg" version="1.1" viewBox="0 0 36 36">
  <!-- Generator: Adobe Illustrator 30.0.0, SVG Export Plug-In . SVG Version: 2.1.1 Build 123)  -->
  <defs>
    <style>
      .st0 {
        fill: #fff;
      }
    </style>
  </defs>
  <path class="st0" d="M17.99,3.67c4.68,0,5.22.02,7.07.1,1.71.08,2.63.36,3.25.6.82.32,1.4.69,2.02,1.31s.99,1.2,1.31,2.02c.24.62.52,1.54.6,3.25.08,1.85.1,2.39.1,7.07s-.02,5.22-.1,7.07c-.08,1.71-.36,2.63-.6,3.25-.32.82-.69,1.4-1.31,2.02s-1.2.99-2.02,1.31c-.62.24-1.54.52-3.25.6-1.85.08-2.39.1-7.07.1s-5.22-.02-7.07-.1c-1.71-.08-2.63-.36-3.25-.6-.82-.32-1.4-.69-2.02-1.31s-.99-1.2-1.31-2.02c-.24-.62-.52-1.54-.6-3.25-.08-1.85-.1-2.39-.1-7.07s.02-5.22.1-7.07c.08-1.71.36-2.63.6-3.25.32-.82.69-1.4,1.31-2.02s1.2-.99,2.02-1.31c.62-.24,1.54-.52,3.25-.6,1.85-.09,2.39-.1,7.07-.1M17.99.52c-4.75,0-5.35.02-7.22.1-1.86.08-3.13.38-4.24.81-1.15.44-2.13,1.05-3.09,2.02s-1.57,1.95-2.02,3.1c-.43,1.11-.73,2.38-.81,4.25-.08,1.86-.1,2.46-.1,7.21s.02,5.35.1,7.22c.08,1.86.39,3.14.81,4.25.44,1.15,1.05,2.13,2.02,3.1s1.95,1.57,3.09,2.02c1.11.43,2.38.73,4.25.81s2.46.1,7.22.1,5.35-.02,7.22-.1c1.86-.08,3.13-.38,4.25-.81,1.15-.44,2.13-1.05,3.09-2.02.97-.97,1.57-1.95,2.02-3.1.43-1.11.73-2.38.81-4.25s.1-2.46.1-7.22-.02-5.35-.1-7.22c-.08-1.86-.38-3.14-.81-4.25-.44-1.15-1.05-2.13-2.02-3.1s-1.95-1.57-3.09-2.02c-1.11-.43-2.38-.73-4.25-.81-1.88-.08-2.47-.1-7.22-.1h0Z"/>
  <path class="st0" d="M17.99,9.03c-4.96,0-8.99,4.02-8.99,8.99s4.02,8.99,8.99,8.99,8.99-4.02,8.99-8.99-4.02-8.99-8.99-8.99h0ZM17.99,23.84c-3.22,0-5.83-2.61-5.83-5.84s2.61-5.84,5.83-5.84,5.83,2.61,5.83,5.84-2.61,5.84-5.83,5.84Z"/>
  <circle class="st0" cx="27.34" cy="8.67" r="2.1"/>
</svg>